<?xml version="1.0" encoding="UTF-8"?>
<svg id="Layer_4" data-name="Layer 4" xmlns="http://www.w3.org/2000/svg" viewBox="0 0 138.1 43.91">
  <defs>
    <style>
      .cls-1 {
        fill: #262626;
      }

      .cls-1, .cls-2, .cls-3 {
        stroke-width: 0px;
      }

      .cls-2 {
        fill: #ffc05a;
      }

      .cls-3 {
        fill: #fff;
      }
    </style>
  </defs>
  <path class="cls-2" d="M116.17,0c-8.17,0-15.66,4.56-19.43,11.81.85.12,1.68.35,2.47.68,1.26.52,2.4,1.31,3.33,2.3.95,1.03,1.69,2.25,2.16,3.57.53,1.49.8,3.05.78,4.63.02,1.58-.23,3.15-.74,4.65-.45,1.34-1.17,2.57-2.13,3.61-.93,1-2.07,1.79-3.33,2.32-.48.2-.97.35-1.47.47,6.67,10.12,20.29,12.92,30.41,6.24s12.92-20.29,6.24-30.41C130.42,3.72,123.54,0,116.17,0h0Z"/>
  <path class="cls-1" d="M123.47,18.24c-.48-.12-1.05-.25-1.7-.38-.69-.14-1.4-.2-2.1-.2-.41,0-.81.03-1.21.09-.36.04-.72.11-1.07.2v14.6h-5.4V14.46c1.12-.38,2.26-.71,3.42-.97,1.44-.32,2.92-.47,4.4-.45.29,0,.64.02,1.05.06.41.04.82.09,1.23.15s.82.13,1.23.22c.36.07.71.17,1.05.31l-.9,4.47Z"/>
  <g>
    <path class="cls-3" d="M0,11.97h8.99c6.06,0,9.95,4.32,9.95,10.94s-3.63,10.65-10.24,10.65H0V11.97ZM8.33,29.37c3.74,0,5.57-2.35,5.57-6.47s-1.86-6.76-5.48-6.76h-3.45v13.23h3.36Z"/>
    <path class="cls-3" d="M28.51,11.97h5.13l7.8,21.58h-5.22l-1.36-4.12h-7.83l-1.33,4.12h-4.96l7.77-21.58ZM28.19,25.89h5.54l-1.31-4.03c-.93-2.96-1.39-5.74-1.39-5.74h-.06s-.75,3.63-1.45,5.74l-1.33,4.03Z"/>
    <path class="cls-3" d="M45.56,11.97h4.93v8.33h8.15v-8.33h4.93v21.58h-4.93v-9.14h-8.15v9.14h-4.93V11.97Z"/>
    <path class="cls-3" d="M68.06,26.73h4.99c.26,2.35,1.8,3.39,4.58,3.39,1.91,0,3.71-.75,3.71-2.52,0-1.89-1.83-2.29-4.96-3.02-4.21-.96-7.63-2-7.63-6.5s3.66-6.5,8.41-6.5,8.12,2.2,8.44,6.44h-4.84c-.26-1.68-1.6-2.67-3.74-2.67-2.03,0-3.39.87-3.39,2.23,0,1.68,1.86,2.06,5.25,2.81,3.89.87,7.46,2.15,7.46,6.7s-3.77,6.96-8.7,6.96c-5.77,0-9.43-2.67-9.57-7.34Z"/>
    <path class="cls-3" d="M91.12,11.97h10.21c2.23,0,3.94.52,5.05,1.48,1.19,1.04,1.83,2.41,1.83,4.12,0,2.15-1.16,3.6-3.48,4.32v.12c2.79.67,4.32,2.61,4.32,5.25,0,2.06-.75,3.63-2.12,4.7-1.28,1.04-3.05,1.6-5.34,1.6h-10.47V11.97ZM100.63,20.64c1.68,0,2.81-.81,2.81-2.41s-1.07-2.44-2.76-2.44h-4.67v4.84h4.61ZM101.07,29.66c.99,0,1.77-.29,2.29-.78.49-.46.78-1.16.78-1.97,0-1.89-1.36-2.81-3.16-2.81h-4.96v5.57h5.05Z"/>
  </g>
</svg>